<svg width="866" height="94" viewBox="0 0 866 94" fill="none" xmlns="http://www.w3.org/2000/svg">
<path d="M25.0055 47.328V92H0.0454884V1.12H19.5015L55.9815 47.328V1.12H80.9415V92H61.1015L25.0055 47.328ZM104.737 1.12H132.641L161.569 92H136.225L130.721 74.208H106.529L101.153 92H75.6815L104.737 1.12ZM126.753 57.568L118.689 25.568L110.241 57.568H126.753ZM156.32 92V1.12H191.264C201.334 1.12 209.739 3.16799 216.48 7.26399C223.307 11.2747 228.427 16.736 231.84 23.648C235.339 30.4747 237.088 38.0693 237.088 46.432C237.088 55.648 235.168 63.6693 231.328 70.496C227.574 77.3227 222.24 82.6133 215.328 86.368C208.502 90.1227 200.48 92 191.264 92H156.32ZM211.744 46.432C211.744 41.7387 210.934 37.6427 209.312 34.144C207.691 30.56 205.344 27.7867 202.272 25.824C199.2 23.8613 195.531 22.88 191.264 22.88H181.28V70.24H191.264C195.616 70.24 199.286 69.216 202.272 67.168C205.344 65.12 207.691 62.304 209.312 58.72C210.934 55.0507 211.744 50.9547 211.744 46.432ZM235.145 92V1.12H260.105V92H235.145ZM262.97 92V1.12H297.914C307.984 1.12 316.389 3.16799 323.13 7.26399C329.957 11.2747 335.077 16.736 338.49 23.648C341.989 30.4747 343.738 38.0693 343.738 46.432C343.738 55.648 341.818 63.6693 337.978 70.496C334.224 77.3227 328.89 82.6133 321.978 86.368C315.152 90.1227 307.13 92 297.914 92H262.97ZM318.394 46.432C318.394 41.7387 317.584 37.6427 315.962 34.144C314.341 30.56 311.994 27.7867 308.922 25.824C305.85 23.8613 302.181 22.88 297.914 22.88H287.93V70.24H297.914C302.266 70.24 305.936 69.216 308.922 67.168C311.994 65.12 314.341 62.304 315.962 58.72C317.584 55.0507 318.394 50.9547 318.394 46.432ZM381.79 1.12H404.702L413.021 29.152L421.47 1.12H444.382L429.022 44.512L435.55 63.072L455.134 1.12H482.27L447.966 92H426.334L413.021 59.488L399.838 92H378.206L343.901 1.12H370.91L390.622 63.072L396.894 44.512L381.79 1.12ZM489.187 1.12H517.091L546.019 92H520.675L515.171 74.208H490.979L485.603 92H460.131L489.187 1.12ZM511.203 57.568L503.139 25.568L494.691 57.568H511.203ZM594.81 30.816C594.81 30.816 594.085 30.3893 592.634 29.536C591.184 28.6827 589.264 27.744 586.874 26.72C584.485 25.6107 581.882 24.6293 579.066 23.776C576.25 22.9227 573.477 22.496 570.746 22.496C568.613 22.496 566.864 22.8373 565.498 23.52C564.133 24.2027 563.45 25.3547 563.45 26.976C563.45 28.512 564.133 29.7493 565.498 30.688C566.864 31.6267 568.784 32.48 571.258 33.248C573.818 34.016 576.848 34.9547 580.346 36.064C585.978 37.7707 590.842 39.7333 594.938 41.952C599.034 44.1707 602.192 47.0293 604.41 50.528C606.629 53.9413 607.738 58.5067 607.738 64.224C607.738 69.6853 606.757 74.2933 604.794 78.048C602.832 81.7173 600.186 84.6613 596.858 86.88C593.53 89.0987 589.818 90.72 585.722 91.744C581.626 92.6827 577.445 93.152 573.178 93.152C568.826 93.152 564.261 92.7253 559.482 91.872C554.789 90.9333 550.224 89.696 545.786 88.16C541.349 86.5387 537.296 84.6613 533.626 82.528L544.378 60.64C544.378 60.64 545.232 61.152 546.938 62.176C548.645 63.2 550.906 64.352 553.722 65.632C556.538 66.912 559.653 68.064 563.066 69.088C566.565 70.112 570.064 70.624 573.562 70.624C576.293 70.624 578.17 70.2827 579.194 69.6C580.304 68.832 580.858 67.8507 580.858 66.656C580.858 64.864 579.92 63.4987 578.042 62.56C576.165 61.536 573.69 60.5973 570.618 59.744C567.632 58.8053 564.304 57.7387 560.634 56.544C555.344 54.752 550.992 52.7467 547.578 50.528C544.165 48.224 541.648 45.536 540.026 42.464C538.405 39.3067 537.594 35.5093 537.594 31.072C537.594 24.3307 539.173 18.6987 542.33 14.176C545.488 9.65333 549.626 6.24 554.746 3.936C559.952 1.54666 565.541 0.351997 571.514 0.351997C575.952 0.351997 580.218 0.906665 584.314 2.016C588.496 3.04 592.378 4.31999 595.962 5.856C599.632 7.392 602.832 8.84266 605.562 10.208L594.81 30.816ZM605.97 92V1.12H630.93V92H605.97ZM674.755 92.64C667.843 92.64 661.571 91.36 655.939 88.8C650.307 86.24 645.443 82.784 641.347 78.432C637.337 73.9947 634.222 69.0453 632.003 63.584C629.87 58.0373 628.803 52.32 628.803 46.432C628.803 40.3733 629.955 34.6133 632.259 29.152C634.563 23.6053 637.763 18.6987 641.859 14.432C646.041 10.1653 650.947 6.79466 656.579 4.31999C662.297 1.75999 668.526 0.479996 675.267 0.479996C682.179 0.479996 688.451 1.80266 694.083 4.448C699.715 7.09333 704.537 10.6347 708.547 15.072C712.558 19.5093 715.63 24.5013 717.763 30.048C719.982 35.5093 721.091 41.1413 721.091 46.944C721.091 52.9173 719.939 58.6347 717.635 64.096C715.417 69.5573 712.217 74.464 708.035 78.816C703.939 83.0827 699.075 86.4533 693.443 88.928C687.811 91.4027 681.582 92.64 674.755 92.64ZM675.011 70.496C678.595 70.496 681.71 69.8133 684.355 68.448C687.001 67.0827 689.134 65.248 690.755 62.944C692.462 60.64 693.699 58.08 694.467 55.264C695.321 52.3627 695.747 49.4187 695.747 46.432C695.747 43.36 695.321 40.416 694.467 37.6C693.614 34.6987 692.334 32.1387 690.627 29.92C688.921 27.7013 686.745 25.952 684.099 24.672C681.454 23.3067 678.382 22.624 674.883 22.624C671.299 22.624 668.185 23.3067 665.539 24.672C662.979 26.0373 660.846 27.872 659.139 30.176C657.433 32.48 656.153 35.0827 655.299 37.984C654.531 40.8 654.147 43.7013 654.147 46.688C654.147 49.76 654.574 52.704 655.427 55.52C656.281 58.336 657.561 60.896 659.267 63.2C660.974 65.4187 663.107 67.2107 665.667 68.576C668.313 69.856 671.427 70.496 675.011 70.496ZM664.771 53.6H688.067L723.395 92H700.099L664.771 53.6ZM758.551 92.768C751.297 92.768 745.068 91.5733 739.863 89.184C734.657 86.7947 730.391 83.5093 727.062 79.328C723.82 75.1467 721.431 70.368 719.895 64.992C718.359 59.5307 717.591 53.8133 717.591 47.84V1.12H742.551V47.84C742.551 50.8267 742.849 53.6853 743.447 56.416C744.044 59.1467 744.983 61.5787 746.263 63.712C747.543 65.8453 749.164 67.552 751.127 68.832C753.175 70.0267 755.649 70.624 758.551 70.624C761.537 70.624 764.055 70.0267 766.103 68.832C768.151 67.552 769.772 65.8453 770.967 63.712C772.247 61.4933 773.185 59.0187 773.783 56.288C774.38 53.5573 774.679 50.7413 774.679 47.84V1.12H799.639V47.84C799.639 54.1547 798.785 60.0427 797.079 65.504C795.457 70.9653 792.983 75.744 789.655 79.84C786.327 83.936 782.06 87.136 776.854 89.44C771.735 91.6587 765.633 92.768 758.551 92.768ZM865.964 70.24V92H801.196V1.12H864.812V22.88H826.156V35.68H859.18V55.904H826.156V70.24H865.964Z" fill="black"/>
</svg>
