<svg width="23" height="44" viewBox="0 0 23 44" fill="none" xmlns="http://www.w3.org/2000/svg">
<path fill-rule="evenodd" clip-rule="evenodd" d="M13 1H10C5.02944 1 1 5.02944 1 10V34C1 38.9706 5.02944 43 10 43H13C17.9706 43 22 38.9706 22 34V10C22 5.02944 17.9706 1 13 1ZM10 0C4.47715 0 0 4.47715 0 10V34C0 39.5228 4.47715 44 10 44H13C18.5228 44 23 39.5228 23 34V10C23 4.47715 18.5228 0 13 0H10Z" fill="black"/>
<path fill-rule="evenodd" clip-rule="evenodd" d="M12 7L12 19L11 19L11 7L12 7Z" fill="black"/>
</svg>
