<svg width="1923" height="240" viewBox="0 0 1923 240" fill="none" xmlns="http://www.w3.org/2000/svg">
<path d="M0.000292578 0L53.2964 0.000104621L221 240L130.663 240L0 52.0956L0.000292578 0Z" fill="black"/>
<path d="M110.604 0.28779H202.87L220.922 26.7673V88.6487H173.643L110.604 0.28779Z" fill="black"/>
<path d="M64.185 206.943V239.467H12.3212L0.573112 222.773V115.416L64.185 206.943Z" fill="black"/>
<path d="M380.28 88.07V196H356.2V43.35H375.98L462.41 153.645V43.565H486.705V196H465.635L380.28 88.07ZM552.194 43.35H574.984L634.324 196H608.954L592.829 154.505H533.919L518.009 196H492.424L552.194 43.35ZM588.099 136.66L563.589 69.795L538.219 136.66H588.099ZM640.302 196V43.35H694.482C710.966 43.35 724.726 46.79 735.762 53.67C746.799 60.4067 755.041 69.58 760.487 81.19C766.077 92.6567 768.872 105.413 768.872 119.46C768.872 134.94 765.791 148.413 759.627 159.88C753.607 171.347 745.007 180.233 733.827 186.54C722.647 192.847 709.532 196 694.482 196H640.302ZM744.362 119.46C744.362 108.71 742.356 99.25 738.342 91.08C734.472 82.7667 728.811 76.3167 721.357 71.73C714.047 67 705.089 64.635 694.482 64.635H664.382V174.715H694.482C705.232 174.715 714.262 172.278 721.572 167.405C729.026 162.532 734.687 155.938 738.557 147.625C742.427 139.312 744.362 129.923 744.362 119.46ZM781.304 196V43.35H805.384V196H781.304ZM826.983 196V43.35H881.163C897.646 43.35 911.406 46.79 922.443 53.67C933.479 60.4067 941.721 69.58 947.168 81.19C952.758 92.6567 955.553 105.413 955.553 119.46C955.553 134.94 952.471 148.413 946.308 159.88C940.288 171.347 931.688 180.233 920.508 186.54C909.328 192.847 896.213 196 881.163 196H826.983ZM931.043 119.46C931.043 108.71 929.036 99.25 925.023 91.08C921.153 82.7667 915.491 76.3167 908.038 71.73C900.728 67 891.769 64.635 881.163 64.635H851.063V174.715H881.163C891.913 174.715 900.943 172.278 908.253 167.405C915.706 162.532 921.368 155.938 925.238 147.625C929.108 139.312 931.043 129.923 931.043 119.46ZM1054.83 43.995H1077.4L1096.32 95.81L1115.46 43.995H1138.03L1111.8 111.935L1134.59 168.05L1182.11 43.35H1208.55L1145.99 196H1125.13L1096.54 127.63L1067.73 196H1046.66L984.306 43.35H1010.54L1058.27 168.05L1081.06 111.935L1054.83 43.995ZM1245.14 43.35H1267.93L1327.27 196H1301.9L1285.78 154.505H1226.87L1210.96 196H1185.37L1245.14 43.35ZM1281.05 136.66L1256.54 69.795L1231.17 136.66H1281.05ZM1421.45 79.255C1420.02 77.6783 1417.94 76.03 1415.21 74.31C1412.49 72.4467 1409.27 70.7267 1405.54 69.15C1401.81 67.5733 1397.8 66.2833 1393.5 65.28C1389.2 64.2767 1384.76 63.775 1380.17 63.775C1370.14 63.775 1362.68 65.6383 1357.81 69.365C1352.94 73.0917 1350.5 78.2517 1350.5 84.845C1350.5 89.7183 1351.86 93.5883 1354.58 96.455C1357.31 99.1783 1361.46 101.472 1367.05 103.335C1372.64 105.198 1379.67 107.205 1388.12 109.355C1398.44 111.792 1407.4 114.73 1415 118.17C1422.6 121.467 1428.4 125.91 1432.41 131.5C1436.43 137.09 1438.43 144.472 1438.43 153.645C1438.43 161.385 1437 168.05 1434.13 173.64C1431.27 179.23 1427.25 183.817 1422.09 187.4C1416.93 190.84 1410.99 193.42 1404.25 195.14C1397.51 196.717 1390.27 197.505 1382.53 197.505C1374.94 197.505 1367.34 196.717 1359.74 195.14C1352.29 193.563 1345.12 191.27 1338.24 188.26C1331.51 185.107 1325.27 181.308 1319.54 176.865L1330.5 156.225C1332.37 158.088 1335.02 160.167 1338.46 162.46C1342.04 164.61 1346.13 166.688 1350.71 168.695C1355.44 170.702 1360.53 172.422 1365.98 173.855C1371.57 175.145 1377.23 175.79 1382.96 175.79C1392.57 175.79 1399.88 174.142 1404.89 170.845C1410.05 167.405 1412.63 162.532 1412.63 156.225C1412.63 151.065 1410.99 146.98 1407.69 143.97C1404.39 140.817 1399.59 138.165 1393.28 136.015C1386.98 133.865 1379.45 131.715 1370.71 129.565C1360.68 126.842 1352.29 123.903 1345.55 120.75C1338.82 117.453 1333.73 113.297 1330.29 108.28C1326.99 103.12 1325.34 96.5983 1325.34 88.715C1325.34 78.6817 1327.78 70.225 1332.65 63.345C1337.53 56.3217 1344.12 51.09 1352.43 47.65C1360.89 44.0667 1370.35 42.275 1380.81 42.275C1387.69 42.275 1394.22 43.0633 1400.38 44.64C1406.54 46.0733 1412.28 48.08 1417.58 50.66C1423.03 53.24 1427.97 56.1783 1432.41 59.475L1421.45 79.255ZM1449.68 196V43.35H1473.76V196H1449.68ZM1558.79 197.075C1547.75 197.075 1537.79 194.925 1528.9 190.625C1520.02 186.182 1512.35 180.305 1505.9 172.995C1499.45 165.685 1494.43 157.443 1490.85 148.27C1487.41 138.953 1485.69 129.422 1485.69 119.675C1485.69 109.498 1487.55 99.8233 1491.28 90.65C1495.01 81.3333 1500.17 73.0917 1506.76 65.925C1513.35 58.615 1521.09 52.8817 1529.98 48.725C1539.01 44.425 1548.76 42.275 1559.22 42.275C1570.11 42.275 1580 44.4967 1588.89 48.94C1597.92 53.3833 1605.59 59.3317 1611.89 66.785C1618.34 74.2383 1623.29 82.5517 1626.73 91.725C1630.31 100.898 1632.1 110.287 1632.1 119.89C1632.1 130.067 1630.24 139.813 1626.51 149.13C1622.93 158.303 1617.84 166.545 1611.25 173.855C1604.66 181.022 1596.84 186.683 1587.81 190.84C1578.93 194.997 1569.25 197.075 1558.79 197.075ZM1559 175.36C1566.74 175.36 1573.62 173.783 1579.64 170.63C1585.66 167.477 1590.68 163.248 1594.69 157.945C1598.85 152.498 1602 146.478 1604.15 139.885C1606.3 133.148 1607.38 126.412 1607.38 119.675C1607.38 112.508 1606.23 105.557 1603.94 98.82C1601.79 92.0833 1598.56 86.135 1594.26 80.975C1589.96 75.815 1584.8 71.73 1578.78 68.72C1572.91 65.5667 1566.31 63.99 1559 63.99C1551.26 63.99 1544.38 65.5667 1538.36 68.72C1532.34 71.8733 1527.26 76.1733 1523.1 81.62C1518.94 86.9233 1515.72 92.8717 1513.42 99.465C1511.27 106.058 1510.2 112.795 1510.2 119.675C1510.2 126.842 1511.35 133.793 1513.64 140.53C1515.93 147.267 1519.16 153.215 1523.31 158.375C1527.61 163.535 1532.77 167.692 1538.79 170.845C1544.81 173.855 1551.55 175.36 1559 175.36ZM1562.01 142.895H1585.23L1631.67 196H1608.45L1562.01 142.895ZM1707.35 197.075C1695.17 197.075 1684.85 194.997 1676.39 190.84C1668.08 186.683 1661.34 181.022 1656.18 173.855C1651.17 166.688 1647.44 158.518 1645 149.345C1642.71 140.172 1641.56 130.64 1641.56 120.75V43.35H1665.64V120.75C1665.64 127.773 1666.36 134.582 1667.79 141.175C1669.23 147.625 1671.52 153.43 1674.67 158.59C1677.83 163.75 1682.06 167.835 1687.36 170.845C1692.81 173.855 1699.47 175.36 1707.35 175.36C1715.38 175.36 1722.05 173.855 1727.35 170.845C1732.8 167.692 1737.02 163.535 1740.03 158.375C1743.19 153.072 1745.48 147.195 1746.91 140.745C1748.35 134.295 1749.06 127.63 1749.06 120.75V43.35H1773.36V120.75C1773.36 131.213 1772.07 141.103 1769.49 150.42C1767.05 159.593 1763.18 167.692 1757.88 174.715C1752.72 181.595 1745.98 187.042 1737.67 191.055C1729.36 195.068 1719.25 197.075 1707.35 197.075ZM1897.19 174.715V196H1792.48V43.35H1895.25V64.635H1816.56V108.065H1884.72V128.06H1816.56V174.715H1897.19Z" fill="black"/>
</svg>
