<svg width="1000" height="1000" viewBox="0 0 1000 1000" fill="none" xmlns="http://www.w3.org/2000/svg">
<rect width="1000" height="1000" fill="#FAFAFA"/>
<path d="M307.001 188L400 188L692.636 604.926L535.001 604.926L307 278.5L307.001 188Z" fill="black"/>
<path d="M500 188.5H661L692.5 234.5V342H610L500 188.5Z" fill="black"/>
<path d="M419 547.5V604H328.5L308 575V388.5L419 547.5Z" fill="black"/>
<path d="M168 810.343V660.657C168 659.919 168.221 659.329 168.664 658.886C169.255 658.295 169.919 658 170.657 658H191.693C194.645 658 197.081 659.181 199 661.543L278.714 765.171V660.657C278.714 658.886 279.6 658 281.371 658H304.179C305.95 658 306.836 658.886 306.836 660.657V810.343C306.836 812.114 305.95 813 304.179 813H283.143C280.19 813 277.755 811.819 275.836 809.457L196.343 705.829V810.343C196.343 812.114 195.383 813 193.464 813H170.657C169.919 813 169.255 812.779 168.664 812.336C168.221 811.745 168 811.081 168 810.343Z" fill="black"/>
<path d="M476.166 809.9L362.351 661.543C360.432 659.181 357.997 658 355.044 658H334.009C332.237 658 331.351 658.886 331.351 660.657V810.343C331.351 812.114 332.237 813 334.009 813H355.044C357.997 813 360.432 811.819 362.351 809.457L400.659 759.414L439.187 809.457C441.106 811.819 443.542 813 446.494 813H474.616C475.354 813 475.944 812.705 476.387 812.114C476.83 811.376 476.756 810.638 476.166 809.9ZM382.28 735.5L359.473 765.171V705.829L382.28 735.5Z" fill="black"/>
<path d="M652.043 658H674.85C676.769 658 677.729 658.886 677.729 660.657V810.343C677.729 812.114 676.769 813 674.85 813H652.043C651.305 813 650.641 812.779 650.05 812.336C649.607 811.745 649.386 811.081 649.386 810.343V660.657C649.386 659.919 649.607 659.329 650.05 658.886C650.641 658.295 651.305 658 652.043 658Z" fill="black"/>
<path d="M702.307 660.657C702.307 659.919 702.528 659.329 702.971 658.886C703.561 658.295 704.226 658 704.964 658H754.342C764.971 658 774.935 659.993 784.235 663.979C793.535 667.964 801.654 673.426 808.592 680.364C815.53 687.155 821.066 695.2 825.199 704.5C829.48 713.652 831.695 723.469 831.842 733.95C832.138 744.874 830.145 755.133 825.864 764.729C821.73 774.324 816.047 782.738 808.814 789.971C801.58 797.057 793.092 802.667 783.349 806.8C773.754 810.933 763.495 813 752.571 813H704.964C704.226 813 703.561 812.779 702.971 812.336C702.528 811.745 702.307 811.081 702.307 810.343V660.657ZM730.649 784.879H754.342C761.133 784.879 767.48 783.624 773.385 781.114C779.438 778.457 784.678 774.914 789.107 770.486C793.683 765.91 797.226 760.669 799.735 754.764C802.392 748.712 803.721 742.29 803.721 735.5C803.721 728.71 802.392 722.362 799.735 716.457C797.226 710.405 793.683 705.164 789.107 700.736C784.678 696.16 779.438 692.617 773.385 690.107C767.48 687.45 761.133 686.121 754.342 686.121H730.649V784.879Z" fill="black"/>
<path d="M495.271 660.657C495.271 659.919 495.492 659.329 495.935 658.886C496.526 658.295 497.19 658 497.928 658H547.307C557.935 658 567.9 659.993 577.2 663.979C586.5 667.964 594.619 673.426 601.557 680.364C608.495 687.155 614.031 695.2 618.164 704.5C622.445 713.652 624.659 723.469 624.807 733.95C625.102 744.874 623.109 755.133 618.828 764.729C614.695 774.324 609.012 782.738 601.778 789.971C594.545 797.057 586.057 802.667 576.314 806.8C566.719 810.933 556.459 813 545.535 813H497.928C497.19 813 496.526 812.779 495.935 812.336C495.492 811.745 495.271 811.081 495.271 810.343V660.657ZM523.614 784.879H547.307C554.097 784.879 560.445 783.624 566.35 781.114C572.402 778.457 577.642 774.914 582.071 770.486C586.647 765.91 590.19 760.669 592.7 754.764C595.357 748.712 596.685 742.29 596.685 735.5C596.685 728.71 595.357 722.362 592.7 716.457C590.19 710.405 586.647 705.164 582.071 700.736C577.642 696.16 572.402 692.617 566.35 690.107C560.445 687.45 554.097 686.121 547.307 686.121H523.614V784.879Z" fill="black"/>
<path d="M415.096 661.413C414.148 659.939 415.206 658 416.958 658H551.735C552.958 658 553.95 658.991 553.95 660.214V683.907C553.95 685.13 552.958 686.121 551.735 686.121H432.208C431.455 686.121 430.753 685.739 430.346 685.106L415.096 661.413Z" fill="black"/>
<rect x="486.636" y="685.9" width="55.3571" height="98.9786" fill="#FAFAFA"/>
</svg>
